# xmcd CD Database Entry
#
# Track frame offsets:
# 150
# 19582
# 39528
# 53448
# 68443
# 81988
# 105259
# 128655
# 138701
# 148816
# 155867
# 163388
# 181060
#
# Disc length: 2576 seconds
#
# Revision: 1
# Processed by: cddbd v1.4PL0 Copyright (c) Steve Scherf et al.
# Submitted via: tcd 2.0b
#
DISCID=ac0a0e0d
DTITLE=모름 - 모름
DYEAR=1900
DGENRE=
TTITLE0=1번 트랙
TTITLE1=2번 트랙
TTITLE2=3번 트랙
TTITLE3=4번 트랙
TTITLE4=5번 트랙
TTITLE5=6번 트랙
TTITLE6=7번 트랙
TTITLE7=8번 트랙
TTITLE8=9번 트랙
TTITLE9=10번 트랙
TTITLE10=11번 트랙
TTITLE11=12번 트랙
TTITLE12=13번 트랙
EXTD=
EXTT0=
EXTT1=
EXTT2=
EXTT3=
EXTT4=
EXTT5=
EXTT6=
EXTT7=
EXTT8=
EXTT9=
EXTT10=
EXTT11=
EXTT12=
PLAYORDER=
